# Exported from Wings 3D 2.1.7
mtllib course1.mtl
o Cube1
#44 vertices, 38 faces
v -1.00000000 -1.00000000 -1.00000000
v -1.00000000 -1.00000000 1.00000000
v -1.00000000 1.82217007 -1.00000000
v -1.00000000 1.47081074 1.00000000
v 1.00000000 -1.00000000 -1.00000000
v 1.00000000 -1.00000000 1.00000000
v 1.00000000 2.50015582 -1.00000000
v 1.00000000 1.00000000 1.00000000
v 5.20745765 -1.00000000 1.00000000
v 5.20745765 -1.00000000 -1.00000000
v 5.20745765 3.11356131 -1.00000000
v 5.20745765 2.85659850 1.00000000
v 11.18045754 -1.00000000 1.00000000
v 11.18045754 -1.00000000 -1.00000000
v 11.18045754 1.82217007 -1.00000000
v 11.18045754 1.00000000 1.00000000
v -1.00000000 1.47081074 6.97299989
v -1.00000000 -1.00000000 6.97299989
v 1.00000000 -1.00000000 6.97299989
v 1.00000000 1.00000000 6.97299989
v 11.17389270 -1.00000000 -1.07561424
v 11.17389270 -1.00000000 0.92438576
v 11.17389270 1.82217007 -1.07561424
v 11.17389270 1.00000000 0.92438576
v 13.17389270 -1.00000000 -1.07561424
v 13.17389270 -1.00000000 0.92438576
v 13.17389270 1.82217007 -1.07561424
v 13.17389270 1.70149866 0.92438576
v 11.17389270 1.00000000 8.94636926
v 11.17389270 -1.00000000 8.94636926
v 13.17389270 -1.00000000 8.94636926
v 13.17389270 1.70149866 8.94636926
v -1.00000000 -1.00000000 6.97195590
v -1.00000000 -1.00000000 8.97195590
v -1.00000000 1.53806942 6.97195590
v -1.00000000 2.34474720 8.97195590
v 1.00000000 -1.00000000 6.97195590
v 1.00000000 -1.00000000 8.97195590
v 1.00000000 1.00000000 6.97195590
v 1.00000000 1.52144158 8.97195590
v 11.18042636 -1.00000000 8.97195590
v 11.18042636 -1.00000000 6.97195590
v 11.18042636 1.00000000 6.97195590
v 11.18042636 0.98337216 8.97195590
vn -0.57735027 -0.57735027 -0.57735027
vn -0.70710678 -0.70710678 0.0000000e+0
vn -0.69723830 0.60369906 -0.38653098
vn -0.68635809 0.70979768 0.15842924
vn 0.0000000e+0 -0.70710678 -0.70710678
vn 0.30151134 -0.90453403 0.30151134
vn -0.14105043 0.82411175 -0.54858418
vn 0.26904960 0.80601088 0.52721796
vn 0.0000000e+0 -0.70710678 0.70710678
vn 0.0000000e+0 -0.70710678 -0.70710678
vn -5.7079969e-3 0.80119580 -0.59837505
vn -4.0425773e-3 0.56743127 0.82341084
vn 0.57735027 -0.57735027 0.57735027
vn 0.57735027 -0.57735027 -0.57735027
vn 0.72111623 0.54126983 -0.43245619
vn 0.62344002 0.46795408 0.62637171
vn -0.48351605 0.61055488 0.62724395
vn -0.57735027 -0.57735027 0.57735027
vn 0.57735027 -0.57735027 0.57735027
vn 0.66095474 0.52342915 0.53773670
vn -0.57735027 -0.57735027 -0.57735027
vn -0.70710678 -0.70710678 0.0000000e+0
vn -0.68790159 0.56494692 -0.45566037
vn -0.79354649 0.60425804 7.1806622e-2
vn 0.57735027 -0.57735027 -0.57735027
vn 0.70710678 -0.70710678 0.0000000e+0
vn 0.55933881 0.64522466 -0.52040872
vn 0.61653881 0.78182357 9.2907509e-2
vn -0.69552827 0.49311526 0.52256843
vn -0.57735027 -0.57735027 0.57735027
vn 0.57735027 -0.57735027 0.57735027
vn 0.43753520 0.61713383 0.65399448
vn -0.57735027 -0.57735027 -0.57735027
vn -0.57735027 -0.57735027 0.57735027
vn -0.40089583 0.52272113 -0.75235972
vn -0.51834291 0.67585835 0.52396194
vn 0.0000000e+0 -0.70710678 -0.70710678
vn 0.0000000e+0 -0.70710678 0.70710678
vn 0.10775904 0.61212895 -0.78338122
vn 0.13415796 0.76208891 0.63342098
vn 0.57735027 -0.57735027 0.57735027
vn 0.57735027 -0.57735027 -0.57735027
vn 0.56467428 0.54573444 -0.61912590
vn 0.61304939 0.59248699 0.52261804
g Cube1_default
usemtl default
s 1
f 1//1 5//5 6//6 2//2
f 2//2 4//4 3//3 1//1
f 2//2 18//18 17//17 4//4
f 3//3 7//7 5//5 1//1
f 4//4 8//8 7//7 3//3
f 4//4 17//17 20//20 8//8
f 5//5 10//10 9//9 6//6
f 6//6 9//9 12//12 8//8
f 6//6 19//19 18//18 2//2
f 7//7 11//11 10//10 5//5
f 8//8 12//12 11//11 7//7
f 8//8 20//20 19//19 6//6
f 9//9 13//13 16//16 12//12
f 10//10 14//14 13//13 9//9
f 11//11 15//15 14//14 10//10
f 12//12 16//16 15//15 11//11
f 14//14 15//15 16//16 13//13
f 18//18 19//19 20//20 17//17
f 21//21 25//25 26//26 22//22
f 22//22 24//24 23//23 21//21
f 22//22 30//30 29//29 24//24
f 23//23 27//27 25//25 21//21
f 24//24 28//28 27//27 23//23
f 24//24 29//29 32//32 28//28
f 25//25 27//27 28//28 26//26
f 26//26 31//31 30//30 22//22
f 28//28 32//32 31//31 26//26
f 30//30 31//31 32//32 29//29
f 33//33 37//37 38//38 34//34
f 34//34 36//36 35//35 33//33
f 34//34 38//38 40//40 36//36
f 35//35 39//39 37//37 33//33
f 36//36 40//40 39//39 35//35
f 37//37 42//42 41//41 38//38
f 38//38 41//41 44//44 40//40
f 39//39 43//43 42//42 37//37
f 40//40 44//44 43//43 39//39
f 42//42 43//43 44//44 41//41
