# Exported from Wings 3D 2.1.7
mtllib course1.mtl
o Cube1
#50 vertices, 46 faces
v -1.00000000 0.0000000e+0 -1.00000000
v -1.00000000 0.0000000e+0 1.00000000
v -1.00000000 2.82217007 -1.00000000
v -1.00000000 2.47081074 1.00000000
v 1.00000000 0.0000000e+0 -1.00000000
v 1.00000000 0.0000000e+0 1.00000000
v 1.00000000 3.50015582 -1.00000000
v 1.00000000 2.00000000 1.00000000
v 5.20745765 0.0000000e+0 1.00000000
v 5.20745765 0.0000000e+0 -1.00000000
v 11.18045754 0.0000000e+0 1.00000000
v 11.18045754 0.0000000e+0 -1.00000000
v -1.81263951 2.47081074 6.97299989
v -1.81263951 0.0000000e+0 6.97299989
v 1.00000000 0.0000000e+0 6.97299989
v 1.00000000 2.00000000 6.97299989
v 11.17389270 0.0000000e+0 -1.07561424
v 11.17389270 0.0000000e+0 0.92438576
v 11.17389270 2.82217007 -1.07561424
v 11.17389270 2.00000000 0.92438576
v 13.17389270 0.0000000e+0 -1.07561424
v 13.17389270 0.0000000e+0 0.92438576
v 13.17389270 2.82217007 -1.07561424
v 13.17389270 2.70149866 0.92438576
v 11.17389270 2.00000000 8.94636926
v 11.17389270 0.0000000e+0 8.94636926
v 13.17389270 0.0000000e+0 8.94636926
v 13.17389270 2.70149866 8.94636926
v -1.84536325 0.0000000e+0 6.97195590
v -1.89990281 0.0000000e+0 8.97195590
v -1.84536325 2.53806942 6.97195590
v -1.89990281 3.34474720 8.97195590
v 1.00000000 0.0000000e+0 6.97195590
v 1.00000000 0.0000000e+0 10.04093136
v 1.00000000 2.00000000 6.97195590
v 1.00000000 2.52144158 10.04093136
v 11.18042636 0.0000000e+0 8.97195590
v 11.18042636 0.0000000e+0 6.97195590
v 11.18042636 2.00000000 6.97195590
v 11.18042636 1.98337216 8.97195590
v 5.20745765 4.11356131 -1.00000000
v 5.20745765 4.11356131 -1.00000000
v 5.20745765 3.85659850 1.00000000
v 5.20745765 3.85659850 1.00000000
v 11.18045754 2.82217007 -1.00000000
v 11.18045754 2.00000000 1.00000000
v 5.20745765 4.11356131 -1.00000000
v 5.20745765 3.85659850 1.00000000
v 11.18045754 2.00000000 1.00000000
v 11.18045754 2.82217007 -1.00000000
vn -0.57735027 -0.57735027 -0.57735027
vn -0.70468390 -0.70791502 -4.7717081e-2
vn -0.69723830 0.60369906 -0.38653098
vn -0.69470550 0.71050536 0.11209997
vn 0.0000000e+0 -0.70710678 -0.70710678
vn 0.30151134 -0.90453403 0.30151134
vn -0.14105043 0.82411175 -0.54858418
vn 0.25795486 0.80749350 0.53048425
vn 0.0000000e+0 -0.70710678 0.70710678
vn 0.0000000e+0 -0.70710678 -0.70710678
vn 0.57735027 -0.57735027 0.57735027
vn 0.57735027 -0.57735027 -0.57735027
vn -0.31579960 0.38700043 -0.86631477
vn -0.64562467 0.0000000e+0 -0.76365488
vn 0.0000000e+0 0.0000000e+0 0.0000000e+0
vn 0.13472251 0.68638627 -0.71464938
vn -0.57735027 -0.57735027 -0.57735027
vn -0.70710678 -0.70710678 0.0000000e+0
vn -0.68790159 0.56494692 -0.45566037
vn -0.79354649 0.60425804 7.1806622e-2
vn 0.57735027 -0.57735027 -0.57735027
vn 0.70710678 -0.70710678 0.0000000e+0
vn 0.55933881 0.64522466 -0.52040872
vn 0.61653881 0.78182357 9.2907509e-2
vn -0.69552827 0.49311526 0.52256843
vn -0.57735027 -0.57735027 0.57735027
vn 0.57735027 -0.57735027 0.57735027
vn 0.43753520 0.61713383 0.65399448
vn -0.68588595 0.0000000e+0 -0.72770906
vn -0.70520211 -0.52411826 0.47748301
vn -0.27861400 0.35399641 -0.89278260
vn -0.68487589 0.59208384 0.42471373
vn -0.57735027 -0.57735027 -0.57735027
vn -8.6483952e-2 -0.71638754 0.69232176
vn -0.23225731 0.61192902 -0.75604194
vn 1.8283889e-2 0.77095472 0.63662746
vn 0.61654180 -0.55824490 0.55519262
vn 0.57735027 -0.57735027 -0.57735027
vn 0.56724269 0.55266968 -0.61056691
vn 0.64358716 0.56887297 0.51203429
vn -0.23466292 0.79945966 -0.55298966
vn 0.0000000e+0 0.0000000e+0 -1.00000000
vn 0.0000000e+0 0.0000000e+0 1.00000000
vn -0.15574654 0.53060398 0.83318811
vn 0.70710678 0.0000000e+0 -0.70710678
vn 0.70710678 0.0000000e+0 0.70710678
vn 0.24656703 0.93567320 0.25242893
vn 0.24656703 0.93567320 0.25242893
vn 0.24656703 0.93567320 0.25242893
vn 0.24656703 0.93567320 0.25242893
g Cube1_default
usemtl default
s 1
f 1//1 5//5 6//6 2//2
f 2//2 4//4 3//3 1//1
f 2//2 14//14 13//13 4//4
f 3//3 7//7 5//5 1//1
f 4//4 8//8 7//7 3//3
f 4//4 13//13 16//16 8//8
f 5//5 10//10 9//9 6//6
f 6//6 9//9 43//43 44//44 8//8
f 6//6 15//15 14//14 2//2
f 7//7 41//41 42//42 10//10 5//5
f 8//8 16//16 15//15 6//6
f 8//8 44//44 41//41 7//7
f 9//9 11//11 46//46 43//43
f 10//10 12//12 11//11 9//9
f 10//10 42//42 45//45 12//12
f 12//12 45//45 46//46 11//11
f 13//13 31//31 35//35 16//16
f 14//14 29//29 31//31 13//13
f 15//15 33//33 29//29 14//14
f 16//16 35//35 33//33 15//15
f 17//17 21//21 22//22 18//18
f 18//18 20//20 19//19 17//17
f 18//18 26//26 25//25 20//20
f 19//19 23//23 21//21 17//17
f 20//20 24//24 23//23 19//19
f 20//20 25//25 28//28 24//24
f 21//21 23//23 24//24 22//22
f 22//22 27//27 26//26 18//18
f 24//24 28//28 27//27 22//22
f 26//26 27//27 28//28 25//25
f 29//29 33//33 34//34 30//30
f 30//30 32//32 31//31 29//29
f 30//30 34//34 36//36 32//32
f 32//32 36//36 35//35 31//31
f 33//33 38//38 37//37 34//34
f 34//34 37//37 40//40 36//36
f 35//35 39//39 38//38 33//33
f 36//36 40//40 39//39 35//35
f 38//38 39//39 40//40 37//37
f 41//41 47//47 42//42
f 42//42 47//47 50//50 45//45
f 43//43 48//48 44//44
f 44//44 48//48 47//47 41//41
f 45//45 50//50 49//49 46//46
f 46//46 49//49 48//48 43//43
f 48//48 49//49 50//50 47//47
